ScienceGothic-BlkS.ufo
<glyph name="parenleft" format="2">
  <advance width="818.172"/>
  <unicode hex="0028"/>
  <outline>
    <contour>
      <point x="644.032" y="-256" type="line"/>
      <point x="329.032" y="-256" type="line"/>
      <point x="259.032" y="-182"/>
      <point x="156.032" y="17"/>
      <point x="96.0321" y="246"/>
      <point x="84.0321" y="496"/>
      <point x="106.032" y="622" type="qcurve" smooth="yes"/>
      <point x="128.032" y="748"/>
      <point x="227.032" y="998"/>
      <point x="367.032" y="1228"/>
      <point x="540.032" y="1426"/>
      <point x="636.032" y="1500" type="qcurve"/>
      <point x="951.032" y="1500" type="line"/>
      <point x="903.032" y="1449"/>
      <point x="812.032" y="1325"/>
      <point x="730.032" y="1185"/>
      <point x="658.032" y="1032"/>
      <point x="598.032" y="870"/>
      <point x="552.032" y="705"/>
      <point x="538.032" y="622" type="qcurve" smooth="yes"/>
      <point x="524.032" y="540"/>
      <point x="512.032" y="374"/>
      <point x="515.032" y="212"/>
      <point x="534.032" y="59"/>
      <point x="567.032" y="-81"/>
      <point x="614.032" y="-205"/>
      <point x="644.032" y="-256" type="qcurve"/>
    </contour>
  </outline>
</glyph>
<glyph name="asterisk" format="2">
  <advance width="1036"/>
  <unicode hex="002A"/>
  <outline>
    <contour>
      <point x="434" y="802" type="line"/>
      <point x="463" y="967" type="line"/>
      <point x="305" y="872" type="line"/>
      <point x="224" y="1034" type="line"/>
      <point x="408" y="1144" type="line"/>
      <point x="267" y="1248" type="line"/>
      <point x="397" y="1400" type="line"/>
      <point x="523" y="1308" type="line"/>
      <point x="551" y="1472" type="line"/>
      <point x="759" y="1472" type="line"/>
      <point x="729" y="1299" type="line"/>
      <point x="890" y="1393" type="line"/>
      <point x="971" y="1232" type="line"/>
      <point x="793" y="1127" type="line"/>
      <point x="926" y="1026" type="line"/>
      <point x="796" y="874" type="line"/>
      <point x="671" y="969" type="line"/>
      <point x="642" y="802" type="line"/>
    </contour>
  </outline>
</glyph>
<glyph name="hyphen" format="2">
  <advance width="1000.65"/>
  <unicode hex="002D"/>
  <outline>
    <contour>
      <point x="148.235" y="818" type="line"/>
      <point x="898.235" y="818" type="line"/>
      <point x="826.235" y="406" type="line"/>
      <point x="76.235" y="406" type="line"/>
    </contour>
  </outline>
  <guideline angle="0" x="0" y="612"/>
</glyph>
<glyph name="six" format="2">
  <advance width="1828"/>
  <unicode hex="0036"/>
  <outline>
    <contour>
      <point x="788" y="-14" type="line"/>
      <point x="944" y="-14"/>
      <point x="1183" y="-9"/>
      <point x="1361" y="16"/>
      <point x="1486" y="67"/>
      <point x="1572" y="158"/>
      <point x="1625" y="295"/>
      <point x="1642" y="394" type="qcurve" smooth="yes"/>
      <point x="1663" y="515"/>
      <point x="1646" y="686"/>
      <point x="1576" y="804"/>
      <point x="1453" y="874"/>
      <point x="1282" y="911"/>
      <point x="1065" y="922"/>
      <point x="935" y="922" type="qcurve" smooth="yes"/>
      <point x="850" y="922"/>
      <point x="666" y="899"/>
      <point x="495" y="863"/>
      <point x="349" y="820"/>
      <point x="302" y="800" type="qcurve"/>
      <point x="249" y="496" type="line"/>
      <point x="308" y="510"/>
      <point x="465" y="532"/>
      <point x="632" y="549"/>
      <point x="792" y="558"/>
      <point x="853" y="558" type="qcurve" smooth="yes"/>
      <point x="905" y="558"/>
      <point x="980" y="555"/>
      <point x="1031" y="548"/>
      <point x="1062" y="534"/>
      <point x="1077" y="513"/>
      <point x="1078" y="482"/>
      <point x="1074" y="462" type="qcurve" smooth="yes"/>
      <point x="1071" y="447"/>
      <point x="1062" y="419"/>
      <point x="1045" y="396"/>
      <point x="1016" y="378"/>
      <point x="971" y="365"/>
      <point x="908" y="358"/>
      <point x="865" y="358" type="qcurve" smooth="yes"/>
      <point x="822" y="358"/>
      <point x="756" y="360"/>
      <point x="709" y="370"/>
      <point x="680" y="390"/>
      <point x="667" y="425"/>
      <point x="668" y="478"/>
      <point x="674" y="516" type="qcurve"/>
      <point x="695" y="632"/>
      <point x="747" y="806"/>
      <point x="822" y="931"/>
      <point x="924" y="1013"/>
      <point x="1064" y="1061"/>
      <point x="1245" y="1080"/>
      <point x="1362" y="1080" type="qcurve" smooth="yes"/>
      <point x="1373" y="1080"/>
      <point x="1405" y="1079"/>
      <point x="1437" y="1076"/>
      <point x="1465" y="1072"/>
      <point x="1473" y="1070" type="qcurve"/>
      <point x="1340" y="1410" type="line"/>
      <point x="1333" y="1412"/>
      <point x="1307" y="1414"/>
      <point x="1272" y="1417"/>
      <point x="1228" y="1418"/>
      <point x="1203" y="1418" type="qcurve" smooth="yes"/>
      <point x="1048" y="1418"/>
      <point x="781" y="1376"/>
      <point x="556" y="1287"/>
      <point x="374" y="1149"/>
      <point x="234" y="958"/>
      <point x="138" y="711"/>
      <point x="111" y="558" type="qcurve" smooth="yes"/>
      <point x="91" y="440"/>
      <point x="90" y="263"/>
      <point x="140" y="136"/>
      <point x="242" y="54"/>
      <point x="407" y="5"/>
      <point x="637" y="-14"/>
      <point x="788" y="-14" type="qcurve"/>
    </contour>
  </outline>
</glyph>
<glyph name="I" format="2">
  <advance width="932" height="1448"/>
  <unicode hex="0049"/>
  <anchor x="617" y="1550" name="top"/>
  <anchor x="320" y="-150" name="bottom"/>
  <anchor x="457" y="0" name="ogonek"/>
  <outline>
    <contour>
      <point x="60" y="0" type="line"/>
      <point x="304" y="1400" type="line"/>
      <point x="876" y="1400" type="line"/>
      <point x="632" y="0" type="line"/>
    </contour>
  </outline>
</glyph>
<glyph name="J" format="2">
  <advance width="1780.58" height="1448"/>
  <unicode hex="004A"/>
  <anchor x="1479" y="1564" name="top"/>
  <anchor x="693" y="-164" name="bottom"/>
  <outline>
    <contour>
      <point x="1736" y="1400" type="line"/>
      <point x="1164" y="1400" type="line"/>
      <point x="999" y="450" type="line"/>
      <point x="999" y="450"/>
      <point x="999" y="450"/>
      <point x="999" y="450"/>
      <point x="999" y="450"/>
      <point x="999" y="450" type="qcurve"/>
      <point x="631" y="450" type="line"/>
      <point x="631" y="450"/>
      <point x="631" y="450"/>
      <point x="631" y="450"/>
      <point x="631" y="450"/>
      <point x="631" y="450" type="qcurve"/>
      <point x="681" y="740" type="line"/>
      <point x="91" y="634" type="line"/>
      <point x="36" y="320" type="line" smooth="yes"/>
      <point x="18" y="220"/>
      <point x="54" y="90"/>
      <point x="149" y="15"/>
      <point x="298" y="-14"/>
      <point x="392" y="-14" type="qcurve" smooth="yes"/>
      <point x="1078" y="-14" type="line" smooth="yes"/>
      <point x="1173" y="-14"/>
      <point x="1330" y="15"/>
      <point x="1450" y="90"/>
      <point x="1530" y="220"/>
      <point x="1548" y="320" type="qcurve" smooth="yes"/>
    </contour>
  </outline>
</glyph>
<glyph name="M" format="2">
  <advance width="2188"/>
  <unicode hex="004D"/>
  <anchor x="1215" y="1550" name="top"/>
  <anchor x="918" y="-150" name="bottom"/>
  <outline>
    <contour>
      <point x="60" y="0" type="line"/>
      <point x="544" y="0" type="line"/>
      <point x="652" y="616" type="line"/>
      <point x="947" y="40" type="line"/>
      <point x="1423" y="613" type="line"/>
      <point x="1316" y="0" type="line"/>
      <point x="1888" y="0" type="line"/>
      <point x="2132" y="1400" type="line"/>
      <point x="1589" y="1400" type="line"/>
      <point x="1078" y="785" type="line"/>
      <point x="763" y="1400" type="line"/>
      <point x="304" y="1400" type="line"/>
    </contour>
  </outline>
</glyph>
<glyph name="P" format="2">
  <advance width="1810.57"/>
  <unicode hex="0050"/>
  <outline>
    <contour>
      <point x="60" y="0" type="line"/>
      <point x="632" y="0" type="line"/>
      <point x="695" y="360" type="line"/>
      <point x="1273" y="360" type="line" smooth="yes"/>
      <point x="1368" y="360"/>
      <point x="1524" y="380"/>
      <point x="1643" y="445"/>
      <point x="1722" y="566"/>
      <point x="1740" y="666" type="qcurve" smooth="yes"/>
      <point x="1810" y="1066" type="line" smooth="yes"/>
      <point x="1828" y="1167"/>
      <point x="1792" y="1296"/>
      <point x="1697" y="1371"/>
      <point x="1549" y="1400"/>
      <point x="1454" y="1400" type="qcurve" smooth="yes"/>
      <point x="304" y="1400" type="line"/>
    </contour>
    <contour>
      <point x="772" y="800" type="line"/>
      <point x="800" y="960" type="line"/>
      <point x="1152" y="960" type="line" smooth="yes"/>
      <point x="1169" y="960"/>
      <point x="1192" y="951"/>
      <point x="1206" y="936"/>
      <point x="1211" y="914"/>
      <point x="1209" y="900" type="qcurve"/>
      <point x="1202" y="860" type="line" smooth="yes"/>
      <point x="1200" y="847"/>
      <point x="1187" y="824"/>
      <point x="1167" y="809"/>
      <point x="1141" y="800"/>
      <point x="1124" y="800" type="qcurve" smooth="yes"/>
    </contour>
  </outline>
  <guideline angle="90" color="0.4,0.4,0.4,1" name="halfwidth" x="905.285" y="0"/>
</glyph>
<glyph name="backslash" format="2">
  <advance width="1122"/>
  <unicode hex="005C"/>
  <outline>
    <contour>
      <point x="614" y="1430" type="line"/>
      <point x="212" y="1430" type="line"/>
      <point x="502" y="-100" type="line"/>
      <point x="904" y="-100" type="line"/>
    </contour>
  </outline>
</glyph>
<glyph name="l" format="2">
  <advance width="783.696" height="1448"/>
  <unicode hex="006C"/>
  <anchor x="551" y="1598" name="top"/>
  <anchor x="246" y="-150" name="bottom"/>
  <anchor x="791" y="1472" name="right"/>
  <anchor x="786" y="700" name="eldot"/>
  <outline>
    <contour>
      <point x="9.6955" y="0" type="line"/>
      <point x="533.695" y="0" type="line"/>
      <point x="790.695" y="1472" type="line"/>
      <point x="266.695" y="1472" type="line"/>
    </contour>
  </outline>
</glyph>
<glyph name="m" format="2">
  <advance width="2140" height="1448"/>
  <unicode hex="006D"/>
  <anchor x="1070" y="1184" name="top"/>
  <anchor x="1070" y="-150" name="bottom"/>
  <anchor x="-2" y="518" name="left"/>
  <outline>
    <contour>
      <point x="9" y="0" type="line"/>
      <point x="533" y="0" type="line"/>
      <point x="638" y="602" type="line"/>
      <point x="796" y="602" type="line"/>
      <point x="691" y="0" type="line"/>
      <point x="1215" y="0" type="line"/>
      <point x="1320" y="602" type="line"/>
      <point x="1478" y="602" type="line"/>
      <point x="1478" y="602"/>
      <point x="1478" y="602"/>
      <point x="1478" y="602" type="qcurve"/>
      <point x="1373" y="0" type="line"/>
      <point x="1897" y="0" type="line"/>
      <point x="2025" y="734" type="line" smooth="yes"/>
      <point x="2038" y="812"/>
      <point x="2015" y="925"/>
      <point x="1938" y="999"/>
      <point x="1805" y="1034"/>
      <point x="1709" y="1034" type="qcurve" smooth="yes"/>
      <point x="1681" y="1034" type="line" smooth="yes"/>
      <point x="1608" y="1034"/>
      <point x="1498" y="1015"/>
      <point x="1416" y="976"/>
      <point x="1361" y="914"/>
      <point x="1344" y="872" type="qcurve"/>
      <point x="1332" y="924"/>
      <point x="1268" y="988"/>
      <point x="1180" y="1022"/>
      <point x="1077" y="1034"/>
      <point x="1027" y="1034" type="qcurve" smooth="yes"/>
      <point x="999" y="1034" type="line" smooth="yes"/>
      <point x="881" y="1034"/>
      <point x="736" y="984"/>
      <point x="695" y="930" type="qcurve"/>
      <point x="712" y="1024" type="line"/>
      <point x="188" y="1024" type="line"/>
    </contour>
  </outline>
</glyph>
<glyph name="o" format="2">
  <advance width="1567.89" height="1448"/>
  <unicode hex="006F"/>
  <anchor x="869" y="1174" name="top"/>
  <anchor x="638" y="-150" name="bottom"/>
  <anchor x="1470" y="780" name="horn"/>
  <anchor x="850" y="0" name="ogonek"/>
  <outline>
    <contour>
      <point x="37.6773" y="254" type="line"/>
      <point x="129.677" y="780" type="line" smooth="yes"/>
      <point x="141.677" y="845"/>
      <point x="193.677" y="941"/>
      <point x="279.677" y="1004"/>
      <point x="400.677" y="1034"/>
      <point x="479.677" y="1034" type="qcurve" smooth="yes"/>
      <point x="1207.68" y="1034" type="line" smooth="yes"/>
      <point x="1366.68" y="1034"/>
      <point x="1492.68" y="911"/>
      <point x="1469.68" y="780" type="qcurve" smooth="yes"/>
      <point x="1377.68" y="254" type="line" smooth="yes"/>
      <point x="1365.68" y="185"/>
      <point x="1313.68" y="85"/>
      <point x="1227.68" y="21"/>
      <point x="1106.68" y="-10"/>
      <point x="1025.68" y="-10" type="qcurve" smooth="yes"/>
      <point x="297.677" y="-10" type="line" smooth="yes"/>
      <point x="217.677" y="-10"/>
      <point x="106.677" y="21"/>
      <point x="43.6773" y="85"/>
      <point x="25.6773" y="185"/>
      <point x="37.6773" y="254" type="qcurve"/>
    </contour>
    <contour>
      <point x="582.677" y="372" type="line"/>
      <point x="582.677" y="372"/>
      <point x="582.677" y="372"/>
      <point x="582.677" y="372" type="qcurve"/>
      <point x="874.677" y="372" type="line"/>
      <point x="874.677" y="372"/>
      <point x="874.677" y="372"/>
      <point x="874.677" y="372" type="qcurve"/>
      <point x="923.677" y="652" type="line"/>
      <point x="923.677" y="652"/>
      <point x="923.677" y="652"/>
      <point x="923.677" y="652" type="qcurve"/>
      <point x="631.677" y="652" type="line"/>
      <point x="631.677" y="652"/>
      <point x="631.677" y="652"/>
      <point x="631.677" y="652" type="qcurve"/>
    </contour>
  </outline>
</glyph>
<glyph name="ordfeminine" format="2">
  <advance width="1064"/>
  <unicode hex="00AA"/>
  <outline>
    <contour>
      <point x="291" y="788" type="line" smooth="yes"/>
      <point x="250" y="788"/>
      <point x="182" y="804"/>
      <point x="136" y="842"/>
      <point x="117" y="906"/>
      <point x="126" y="954" type="qcurve"/>
      <point x="139" y="1032" type="line" smooth="yes"/>
      <point x="147" y="1080"/>
      <point x="188" y="1141"/>
      <point x="247" y="1177"/>
      <point x="320" y="1191"/>
      <point x="361" y="1191" type="qcurve" smooth="yes"/>
      <point x="722" y="1191" type="line"/>
      <point x="734" y="1263" type="line"/>
      <point x="734" y="1263"/>
      <point x="734" y="1263"/>
      <point x="734" y="1263" type="qcurve"/>
      <point x="542" y="1263" type="line"/>
      <point x="542" y="1263"/>
      <point x="542" y="1263"/>
      <point x="542" y="1263" type="qcurve"/>
      <point x="536" y="1228" type="line"/>
      <point x="207" y="1290" type="line"/>
      <point x="209" y="1303" type="line" smooth="yes"/>
      <point x="217" y="1351"/>
      <point x="257" y="1416"/>
      <point x="314" y="1455"/>
      <point x="388" y="1472"/>
      <point x="431" y="1472" type="qcurve" smooth="yes"/>
      <point x="917" y="1472" type="line" smooth="yes"/>
      <point x="960" y="1472"/>
      <point x="1028" y="1457"/>
      <point x="1072" y="1417"/>
      <point x="1088" y="1347"/>
      <point x="1079" y="1292" type="qcurve" smooth="yes"/>
      <point x="992" y="795" type="line"/>
      <point x="653" y="795" type="line"/>
      <point x="670" y="893" type="line"/>
      <point x="656" y="863"/>
      <point x="615" y="823"/>
      <point x="563" y="798"/>
      <point x="501" y="788"/>
      <point x="467" y="788" type="qcurve" smooth="yes"/>
    </contour>
    <contour>
      <point x="468" y="966" type="line"/>
      <point x="468" y="966"/>
      <point x="468" y="966"/>
      <point x="468" y="966" type="qcurve"/>
      <point x="683" y="966" type="line"/>
      <point x="695" y="1037" type="line"/>
      <point x="480" y="1037" type="line"/>
      <point x="480" y="1037"/>
      <point x="480" y="1037"/>
      <point x="480" y="1037" type="qcurve"/>
    </contour>
  </outline>
</glyph>
<glyph name="uni0309" format="2">
  <unicode hex="0309"/>
  <anchor x="77" y="1174" name="_top"/>
  <anchor x="30" y="1100" name="_topright"/>
  <outline>
    <contour>
      <point x="-30" y="1100" type="line"/>
      <point x="171" y="1100" type="line"/>
      <point x="206" y="1116"/>
      <point x="267" y="1153"/>
      <point x="314" y="1196"/>
      <point x="346" y="1247"/>
      <point x="351" y="1277" type="qcurve" smooth="yes"/>
      <point x="359" y="1320"/>
      <point x="338" y="1394"/>
      <point x="284" y="1449"/>
      <point x="199" y="1480"/>
      <point x="143" y="1480" type="qcurve" smooth="yes"/>
      <point x="108" y="1480"/>
      <point x="38" y="1467"/>
      <point x="-26" y="1446"/>
      <point x="-84" y="1417"/>
      <point x="-108" y="1400" type="qcurve"/>
      <point x="-61" y="1244" type="line"/>
      <point x="-45" y="1254"/>
      <point x="-7" y="1266"/>
      <point x="18" y="1266" type="qcurve" smooth="yes"/>
      <point x="47" y="1266"/>
      <point x="77" y="1229"/>
      <point x="72" y="1199" type="qcurve" smooth="yes"/>
      <point x="66" y="1166"/>
      <point x="9" y="1119"/>
      <point x="-30" y="1100" type="qcurve"/>
    </contour>
  </outline>
</glyph>
<glyph name="uni031B" format="2">
  <unicode hex="031B"/>
  <anchor x="58" y="1024" name="_horn"/>
  <outline>
    <contour>
      <point x="16" y="789" type="line"/>
      <point x="157" y="789"/>
      <point x="349" y="833"/>
      <point x="473" y="922"/>
      <point x="540" y="1056"/>
      <point x="556" y="1146" type="qcurve" smooth="yes"/>
      <point x="565" y="1197"/>
      <point x="576" y="1330"/>
      <point x="576" y="1393" type="qcurve"/>
      <point x="212" y="1328" type="line"/>
      <point x="212" y="1284"/>
      <point x="206" y="1209"/>
      <point x="201" y="1178" type="qcurve" smooth="yes"/>
      <point x="194" y="1140"/>
      <point x="172" y="1082"/>
      <point x="137" y="1043"/>
      <point x="90" y="1024"/>
      <point x="58" y="1024" type="qcurve"/>
    </contour>
  </outline>
</glyph>
<glyph name="uni0416" format="2">
  <advance width="2794"/>
  <unicode hex="0416"/>
  <anchor x="1549" y="1550" name="top"/>
  <anchor x="1252" y="-150" name="bottom"/>
  <outline>
    <contour>
      <point x="-120" y="0" type="line"/>
      <point x="624" y="0" type="line"/>
      <point x="1079" y="512" type="line"/>
      <point x="990" y="0" type="line"/>
      <point x="1562" y="0" type="line"/>
      <point x="1652" y="515" type="line"/>
      <point x="1950" y="0" type="line"/>
      <point x="2674" y="0" type="line"/>
      <point x="2210" y="741" type="line"/>
      <point x="2835" y="1400" type="line"/>
      <point x="2189" y="1400" type="line"/>
      <point x="1716" y="882" type="line"/>
      <point x="1806" y="1400" type="line"/>
      <point x="1234" y="1400" type="line"/>
      <point x="1144" y="885" type="line"/>
      <point x="833" y="1400" type="line"/>
      <point x="207" y="1400" type="line"/>
      <point x="617" y="763" type="line"/>
    </contour>
  </outline>
</glyph>
<glyph name="uni041F" format="2">
  <advance width="2054"/>
  <unicode hex="041F"/>
  <outline>
    <contour>
      <point x="60" y="0" type="line"/>
      <point x="632" y="0" type="line"/>
      <point x="792" y="916" type="line"/>
      <point x="1342" y="916" type="line"/>
      <point x="1182" y="0" type="line"/>
      <point x="1754" y="0" type="line"/>
      <point x="1998" y="1400" type="line"/>
      <point x="304" y="1400" type="line"/>
    </contour>
  </outline>
</glyph>
<glyph name="uni0428" format="2">
  <advance width="2644"/>
  <unicode hex="0428"/>
  <outline>
    <contour>
      <point x="60" y="0" type="line"/>
      <point x="2344" y="0" type="line"/>
      <point x="2588" y="1400" type="line"/>
      <point x="2016" y="1400" type="line"/>
      <point x="1856" y="484" type="line"/>
      <point x="1572" y="484" type="line"/>
      <point x="1732" y="1400" type="line"/>
      <point x="1160" y="1400" type="line"/>
      <point x="1000" y="484" type="line"/>
      <point x="716" y="484" type="line"/>
      <point x="876" y="1400" type="line"/>
      <point x="304" y="1400" type="line"/>
    </contour>
  </outline>
</glyph>
<glyph name="uni0434" format="2">
  <advance width="1604"/>
  <unicode hex="0434"/>
  <outline>
    <contour>
      <point x="-135" y="-240" type="line"/>
      <point x="339" y="-240" type="line"/>
      <point x="406" y="0" type="line"/>
      <point x="959" y="0" type="line"/>
      <point x="942" y="-240" type="line"/>
      <point x="1416" y="-240" type="line"/>
      <point x="1525" y="382" type="line"/>
      <point x="1351" y="382" type="line"/>
      <point x="1212" y="1024" type="line"/>
      <point x="511" y="1024" type="line"/>
      <point x="148" y="382" type="line"/>
      <point x="-26" y="382" type="line"/>
    </contour>
    <contour>
      <point x="634" y="352" type="line"/>
      <point x="807" y="683" type="line"/>
      <point x="863" y="352" type="line"/>
    </contour>
  </outline>
</glyph>
<glyph name="uni045F" format="2">
  <advance width="1497"/>
  <unicode hex="045F"/>
  <outline>
    <contour>
      <point x="9" y="0" type="line"/>
      <point x="380" y="0" type="line"/>
      <point x="363" y="-240" type="line"/>
      <point x="837" y="-240" type="line"/>
      <point x="879" y="0" type="line"/>
      <point x="1250" y="0" type="line"/>
      <point x="1429" y="1024" type="line"/>
      <point x="905" y="1024" type="line"/>
      <point x="793" y="382" type="line"/>
      <point x="600" y="382" type="line"/>
      <point x="712" y="1024" type="line"/>
      <point x="188" y="1024" type="line"/>
    </contour>
  </outline>
  <guideline angle="260.125" color="1,0,0,1" x="628" y="-0"/>
</glyph>
<glyph name="uni0497" format="2">
  <advance width="2664"/>
  <unicode hex="0497"/>
  <outline>
    <contour>
      <point x="606" y="0" type="line"/>
      <point x="1042" y="395" type="line"/>
      <point x="973" y="0" type="line"/>
      <point x="1497" y="0" type="line"/>
      <point x="1566" y="396" type="line"/>
      <point x="1865" y="0" type="line"/>
      <point x="2038" y="0" type="line"/>
      <point x="2021" y="-240" type="line"/>
      <point x="2495" y="-240" type="line"/>
      <point x="2604" y="382" type="line"/>
      <point x="2267" y="382" type="line"/>
      <point x="2120" y="558" type="line"/>
      <point x="2696" y="1024" type="line"/>
      <point x="2082" y="1024" type="line"/>
      <point x="1606" y="624" type="line"/>
      <point x="1676" y="1024" type="line"/>
      <point x="1152" y="1024" type="line"/>
      <point x="1082" y="625" type="line"/>
      <point x="747" y="1024" type="line"/>
      <point x="133" y="1024" type="line"/>
      <point x="545" y="558" type="line"/>
      <point x="-114" y="0" type="line"/>
    </contour>
  </outline>
  <guideline angle="260.098" color="1,0,0,1" x="2696" y="1024"/>
  <guideline angle="260.098" color="1,0,0,1" x="2696" y="1024"/>
</glyph>
<glyph name="uni04B3" format="2">
  <advance width="1564"/>
  <unicode hex="04B3"/>
  <outline>
    <contour>
      <point x="436" y="524" type="line"/>
      <point x="-112" y="0" type="line"/>
      <point x="463" y="0" type="line"/>
      <point x="669" y="222" type="line"/>
      <point x="805" y="0" type="line" name="ATT"/>
      <point x="938" y="0" type="line"/>
      <point x="921" y="-240" type="line"/>
      <point x="1395" y="-240" type="line"/>
      <point x="1504" y="382" type="line"/>
      <point x="1154" y="382" type="line"/>
      <point x="1036" y="530" type="line"/>
      <point x="1560" y="1024" type="line"/>
      <point x="980" y="1024" type="line"/>
      <point x="802" y="832" type="line"/>
      <point x="692" y="1024" type="line"/>
      <point x="67" y="1024" type="line"/>
    </contour>
  </outline>
</glyph>
<glyph name="uni04B8" format="2">
  <advance width="1964"/>
  <unicode hex="04B8"/>
  <outline>
    <contour>
      <point x="1092" y="0" type="line"/>
      <point x="1664" y="0" type="line"/>
      <point x="1908" y="1400" type="line"/>
      <point x="1336" y="1400" type="line"/>
      <point x="1238" y="838" type="line"/>
      <point x="1120" y="838" type="line"/>
      <point x="1169" y="1120" type="line"/>
      <point x="925" y="1120" type="line"/>
      <point x="876" y="838" type="line"/>
      <point x="758" y="838" type="line"/>
      <point x="758" y="838"/>
      <point x="758" y="838"/>
      <point x="758" y="838"/>
      <point x="758" y="838"/>
      <point x="758" y="838" type="qcurve"/>
      <point x="856" y="1400" type="line"/>
      <point x="284" y="1400" type="line"/>
      <point x="170" y="742" type="line" smooth="yes"/>
      <point x="151" y="636"/>
      <point x="184" y="502"/>
      <point x="275" y="426"/>
      <point x="422" y="398"/>
      <point x="517" y="398" type="qcurve" smooth="yes"/>
      <point x="799" y="398" type="line"/>
      <point x="779" y="280" type="line"/>
      <point x="1023" y="280" type="line"/>
      <point x="1043" y="398" type="line"/>
      <point x="1161" y="398" type="line"/>
    </contour>
  </outline>
</glyph>
<glyph name="uni04B9" format="2">
  <advance width="1553"/>
  <unicode hex="04B9"/>
  <outline>
    <contour>
      <point x="786" y="0" type="line"/>
      <point x="1310" y="0" type="line"/>
      <point x="1489" y="1024" type="line"/>
      <point x="965" y="1024" type="line"/>
      <point x="902" y="664" type="line"/>
      <point x="849" y="664" type="line"/>
      <point x="880" y="844" type="line"/>
      <point x="720" y="844" type="line"/>
      <point x="689" y="664" type="line"/>
      <point x="629" y="664" type="line"/>
      <point x="629" y="664"/>
      <point x="629" y="664"/>
      <point x="629" y="664"/>
      <point x="629" y="664"/>
      <point x="629" y="664" type="qcurve"/>
      <point x="692" y="1024" type="line"/>
      <point x="168" y="1024" type="line"/>
      <point x="86" y="554" type="line" smooth="yes"/>
      <point x="71" y="470"/>
      <point x="94" y="364"/>
      <point x="161" y="304"/>
      <point x="268" y="282"/>
      <point x="339" y="282" type="qcurve" smooth="yes"/>
      <point x="622" y="282" type="line"/>
      <point x="598" y="141" type="line"/>
      <point x="758" y="141" type="line"/>
      <point x="782" y="282" type="line"/>
      <point x="835" y="282" type="line"/>
    </contour>
  </outline>
</glyph>
<glyph name="colonmonetary" format="2">
  <advance width="1892" height="1448"/>
  <unicode hex="20A1"/>
  <outline>
    <contour>
      <point x="726" y="-164" type="line"/>
      <point x="1128" y="1564" type="line"/>
      <point x="1004" y="1564" type="line"/>
      <point x="602" y="-164" type="line"/>
    </contour>
    <contour>
      <point x="926" y="-164" type="line"/>
      <point x="1328" y="1564" type="line"/>
      <point x="1204" y="1564" type="line"/>
      <point x="802" y="-164" type="line"/>
    </contour>
    <contour>
      <point x="222" y="1060" type="line"/>
      <point x="98" y="352" type="line" smooth="yes"/>
      <point x="80" y="249"/>
      <point x="112" y="115"/>
      <point x="203" y="37"/>
      <point x="351" y="6"/>
      <point x="450" y="6" type="qcurve" smooth="yes"/>
      <point x="1242" y="6" type="line" smooth="yes"/>
      <point x="1341" y="6"/>
      <point x="1500" y="37"/>
      <point x="1620" y="115"/>
      <point x="1698" y="249"/>
      <point x="1716" y="352" type="qcurve" smooth="yes"/>
      <point x="1745" y="514" type="line"/>
      <point x="1212" y="626" type="line"/>
      <point x="1181" y="450" type="line"/>
      <point x="1181" y="450"/>
      <point x="1181" y="450"/>
      <point x="1181" y="450"/>
      <point x="1181" y="450"/>
      <point x="1181" y="450" type="qcurve"/>
      <point x="667" y="450" type="line"/>
      <point x="667" y="450"/>
      <point x="667" y="450"/>
      <point x="667" y="450"/>
      <point x="667" y="450"/>
      <point x="667" y="450" type="qcurve"/>
      <point x="755" y="950" type="line"/>
      <point x="755" y="950"/>
      <point x="755" y="950"/>
      <point x="755" y="950"/>
      <point x="755" y="950"/>
      <point x="755" y="950" type="qcurve"/>
      <point x="1263" y="950" type="line"/>
      <point x="1263" y="950"/>
      <point x="1263" y="950"/>
      <point x="1263" y="950"/>
      <point x="1263" y="950"/>
      <point x="1263" y="950" type="qcurve"/>
      <point x="1237" y="800" type="line"/>
      <point x="1807" y="906" type="line"/>
      <point x="1834" y="1060" type="line" smooth="yes"/>
      <point x="1852" y="1161"/>
      <point x="1816" y="1290"/>
      <point x="1721" y="1365"/>
      <point x="1573" y="1394"/>
      <point x="1478" y="1394" type="qcurve" smooth="yes"/>
      <point x="692" y="1394" type="line" smooth="yes"/>
      <point x="598" y="1394"/>
      <point x="440" y="1365"/>
      <point x="320" y="1290"/>
      <point x="240" y="1161"/>
      <point x="222" y="1060" type="qcurve"/>
    </contour>
  </outline>
</glyph>
<glyph name="uni20BA" format="2">
  <advance width="1796"/>
  <unicode hex="20BA"/>
  <outline>
    <contour>
      <point x="186" y="0" type="line"/>
      <point x="289" y="591" type="line"/>
      <point x="79" y="519" type="line"/>
      <point x="107" y="679" type="line"/>
      <point x="317" y="751" type="line"/>
      <point x="329" y="821" type="line"/>
      <point x="119" y="749" type="line"/>
      <point x="147" y="909" type="line"/>
      <point x="357" y="981" type="line"/>
      <point x="430" y="1400" type="line"/>
      <point x="1002" y="1400" type="line"/>
      <point x="965" y="1190" type="line"/>
      <point x="1232" y="1281" type="line"/>
      <point x="1204" y="1121" type="line"/>
      <point x="937" y="1030" type="line"/>
      <point x="925" y="960" type="line"/>
      <point x="1191" y="1051" type="line"/>
      <point x="1164" y="891" type="line"/>
      <point x="897" y="799" type="line"/>
      <point x="835" y="444" type="line"/>
      <point x="862" y="444" type="line" smooth="yes"/>
      <point x="895" y="444"/>
      <point x="956" y="460"/>
      <point x="1010" y="493"/>
      <point x="1057" y="543"/>
      <point x="1095" y="612"/>
      <point x="1123" y="700"/>
      <point x="1133" y="753" type="qcurve"/>
      <point x="1691" y="646" type="line"/>
      <point x="1671" y="535"/>
      <point x="1590" y="353"/>
      <point x="1472" y="209"/>
      <point x="1318" y="103"/>
      <point x="1131" y="34"/>
      <point x="914" y="0"/>
      <point x="792" y="0" type="qcurve" smooth="yes"/>
    </contour>
  </outline>
</glyph>
<glyph name="uni223C" format="2">
  <advance width="1314.47"/>
  <unicode hex="223C"/>
  <outline>
    <contour>
      <point x="1091.91" y="767" type="line"/>
      <point x="1240.91" y="545" type="line"/>
      <point x="1202.91" y="514"/>
      <point x="1110.91" y="458"/>
      <point x="1005.91" y="415"/>
      <point x="888.91" y="390"/>
      <point x="826.91" y="390" type="qcurve" smooth="yes"/>
      <point x="775.91" y="390"/>
      <point x="690.91" y="405"/>
      <point x="618.91" y="429"/>
      <point x="556.91" y="455"/>
      <point x="497.91" y="479"/>
      <point x="437.91" y="494"/>
      <point x="404.91" y="494" type="qcurve" smooth="yes"/>
      <point x="379.91" y="494"/>
      <point x="327.91" y="485"/>
      <point x="274.91" y="464"/>
      <point x="218.91" y="431"/>
      <point x="188.91" y="407" type="qcurve"/>
      <point x="40.9097" y="629" type="line"/>
      <point x="78.9097" y="660"/>
      <point x="170.91" y="716"/>
      <point x="275.91" y="759"/>
      <point x="391.91" y="784"/>
      <point x="453.91" y="784" type="qcurve" smooth="yes"/>
      <point x="505.91" y="784"/>
      <point x="589.91" y="769"/>
      <point x="661.91" y="745"/>
      <point x="724.91" y="719"/>
      <point x="783.91" y="695"/>
      <point x="843.91" y="680"/>
      <point x="876.91" y="680" type="qcurve" smooth="yes"/>
      <point x="901.91" y="680"/>
      <point x="953.91" y="689"/>
      <point x="1006.91" y="710"/>
      <point x="1062.91" y="743"/>
      <point x="1091.91" y="767" type="qcurve"/>
    </contour>
  </outline>
</glyph>
<glyph name="notequal" format="2">
  <advance width="1447"/>
  <unicode hex="2260"/>
  <outline>
    <contour>
      <point x="85" y="502" type="line"/>
      <point x="501" y="502" type="line"/>
      <point x="592" y="672" type="line"/>
      <point x="114" y="672" type="line"/>
      <point x="165" y="962" type="line"/>
      <point x="749" y="962" type="line"/>
      <point x="860" y="1168" type="line"/>
      <point x="1182" y="1168" type="line"/>
      <point x="1071" y="962" type="line"/>
      <point x="1379" y="962" type="line"/>
      <point x="1328" y="672" type="line"/>
      <point x="914" y="672" type="line"/>
      <point x="823" y="502" type="line"/>
      <point x="1299" y="502" type="line"/>
      <point x="1248" y="212" type="line"/>
      <point x="666" y="212" type="line"/>
      <point x="552" y="0" type="line"/>
      <point x="230" y="0" type="line"/>
      <point x="344" y="212" type="line"/>
      <point x="34" y="212" type="line"/>
    </contour>
  </outline>
</glyph>
<glyph name="Q.alt" format="2">
  <advance width="2054.04"/>
  <anchor x="1027.02" y="-442" name="bottom"/>
  <anchor x="1178" y="1550" name="top"/>
  <outline>
    <contour>
      <point x="225.576" y="1080" type="line"/>
      <point x="94.5757" y="332" type="line" smooth="yes"/>
      <point x="76.5757" y="229"/>
      <point x="108.576" y="95"/>
      <point x="199.576" y="17"/>
      <point x="347.576" y="-14"/>
      <point x="446.576" y="-14" type="qcurve" smooth="yes"/>
      <point x="1360.58" y="-14" type="line" smooth="yes"/>
      <point x="1459.58" y="-14"/>
      <point x="1618.58" y="17"/>
      <point x="1738.58" y="95"/>
      <point x="1816.58" y="229"/>
      <point x="1834.58" y="332" type="qcurve" smooth="yes"/>
      <point x="1965.58" y="1080" type="line" smooth="yes"/>
      <point x="1983.58" y="1181"/>
      <point x="1947.58" y="1310"/>
      <point x="1852.58" y="1385"/>
      <point x="1704.58" y="1414"/>
      <point x="1609.58" y="1414" type="qcurve" smooth="yes"/>
      <point x="695.576" y="1414" type="line" smooth="yes"/>
      <point x="601.576" y="1414"/>
      <point x="443.576" y="1385"/>
      <point x="323.576" y="1310"/>
      <point x="243.576" y="1181"/>
      <point x="225.576" y="1080" type="qcurve"/>
    </contour>
    <contour>
      <point x="771.576" y="930" type="line"/>
      <point x="771.576" y="930"/>
      <point x="771.576" y="930"/>
      <point x="771.576" y="930"/>
      <point x="771.576" y="930"/>
      <point x="771.576" y="930" type="qcurve"/>
      <point x="1367.58" y="930" type="line"/>
      <point x="1367.58" y="930"/>
      <point x="1367.58" y="930"/>
      <point x="1367.58" y="930"/>
      <point x="1367.58" y="930"/>
      <point x="1367.58" y="930" type="qcurve"/>
      <point x="1286.58" y="470" type="line"/>
      <point x="1286.58" y="470"/>
      <point x="1286.58" y="470"/>
      <point x="1286.58" y="470"/>
      <point x="1286.58" y="470"/>
      <point x="1286.58" y="470" type="qcurve"/>
      <point x="690.576" y="470" type="line"/>
      <point x="690.576" y="470"/>
      <point x="690.576" y="470"/>
      <point x="690.576" y="470"/>
      <point x="690.576" y="470"/>
      <point x="690.576" y="470" type="qcurve"/>
    </contour>
    <contour>
      <point x="881.576" y="-282" type="line"/>
      <point x="1443.58" y="-282" type="line"/>
      <point x="1365.58" y="2" type="line"/>
      <point x="827.576" y="2" type="line"/>
    </contour>
  </outline>
</glyph>
<glyph name="a.sc" format="2">
  <advance width="1685" height="1448"/>
  <anchor x="949" y="1236" name="top"/>
  <anchor x="677" y="-150" name="bottom"/>
  <anchor x="1319" y="0" name="ogonek"/>
  <outline>
    <contour>
      <point x="653" y="1086" type="line"/>
      <point x="-120" y="0" type="line"/>
      <point x="421" y="0" type="line"/>
      <point x="806" y="558" type="line"/>
      <point x="947" y="0" type="line"/>
      <point x="1565" y="0" type="line"/>
      <point x="1174" y="1086" type="line"/>
    </contour>
    <contour>
      <point x="188" y="106" type="line"/>
      <point x="1247" y="106" type="line"/>
      <point x="1152" y="361" type="line"/>
      <point x="369" y="361" type="line"/>
    </contour>
  </outline>
</glyph>
<glyph name="dollar.alt2" format="2">
  <advance width="1821"/>
  <outline>
    <contour>
      <point x="387" y="6" type="line" smooth="yes"/>
      <point x="292" y="6"/>
      <point x="145" y="34"/>
      <point x="52" y="109"/>
      <point x="19" y="242"/>
      <point x="37" y="348" type="qcurve" smooth="yes"/>
      <point x="48" y="410" type="line"/>
      <point x="603" y="462" type="line"/>
      <point x="590" y="392" type="line"/>
      <point x="590" y="392"/>
      <point x="590" y="392"/>
      <point x="590" y="392"/>
      <point x="590" y="392"/>
      <point x="590" y="392" type="qcurve"/>
      <point x="1116" y="392" type="line"/>
      <point x="1116" y="392"/>
      <point x="1116" y="392"/>
      <point x="1116" y="392"/>
      <point x="1116" y="392"/>
      <point x="1116" y="392" type="qcurve"/>
      <point x="1138" y="514" type="line"/>
      <point x="1138" y="514"/>
      <point x="1138" y="514"/>
      <point x="1138" y="514"/>
      <point x="1138" y="514"/>
      <point x="1138" y="514" type="qcurve"/>
      <point x="504" y="514" type="line" smooth="yes"/>
      <point x="409" y="514"/>
      <point x="262" y="542"/>
      <point x="170" y="618"/>
      <point x="138" y="752"/>
      <point x="156" y="858" type="qcurve" smooth="yes"/>
      <point x="191" y="1062" type="line" smooth="yes"/>
      <point x="209" y="1166"/>
      <point x="293" y="1295"/>
      <point x="416" y="1368"/>
      <point x="574" y="1394"/>
      <point x="665" y="1394" type="qcurve" smooth="yes"/>
      <point x="1407" y="1394" type="line" smooth="yes"/>
      <point x="1499" y="1394"/>
      <point x="1645" y="1369"/>
      <point x="1741" y="1297"/>
      <point x="1778" y="1169"/>
      <point x="1760" y="1066" type="qcurve" smooth="yes"/>
      <point x="1750" y="1008" type="line"/>
      <point x="1195" y="958" type="line"/>
      <point x="1207" y="1028" type="line"/>
      <point x="1207" y="1028"/>
      <point x="1207" y="1028"/>
      <point x="1207" y="1028"/>
      <point x="1207" y="1028"/>
      <point x="1207" y="1028" type="qcurve"/>
      <point x="731" y="1028" type="line"/>
      <point x="731" y="1028"/>
      <point x="731" y="1028"/>
      <point x="731" y="1028"/>
      <point x="731" y="1028"/>
      <point x="731" y="1028" type="qcurve"/>
      <point x="709" y="900" type="line"/>
      <point x="709" y="900"/>
      <point x="709" y="900"/>
      <point x="709" y="900"/>
      <point x="709" y="900"/>
      <point x="709" y="900" type="qcurve"/>
      <point x="1339" y="900" type="line" smooth="yes"/>
      <point x="1431" y="900"/>
      <point x="1578" y="875"/>
      <point x="1674" y="804"/>
      <point x="1712" y="676"/>
      <point x="1694" y="572" type="qcurve" smooth="yes"/>
      <point x="1655" y="350" type="line" smooth="yes"/>
      <point x="1637" y="244"/>
      <point x="1557" y="109"/>
      <point x="1437" y="34"/>
      <point x="1279" y="6"/>
      <point x="1183" y="6" type="qcurve" smooth="yes"/>
    </contour>
    <contour>
      <point x="549" y="-164" type="line"/>
      <point x="851" y="1564" type="line"/>
      <point x="1051" y="1564" type="line"/>
      <point x="749" y="-164" type="line"/>
    </contour>
    <contour>
      <point x="779" y="-164" type="line"/>
      <point x="1081" y="1564" type="line"/>
      <point x="1281" y="1564" type="line"/>
      <point x="979" y="-164" type="line"/>
    </contour>
  </outline>
</glyph>
<glyph name="eng.sc" format="2">
  <advance width="1793"/>
  <outline>
    <contour>
      <point x="249" y="1086" type="line"/>
      <point x="59" y="0" type="line"/>
      <point x="553" y="0" type="line"/>
      <point x="623" y="400" type="line"/>
      <point x="1013" y="75" type="line"/>
      <point x="985" y="-80" type="line"/>
      <point x="985" y="-80"/>
      <point x="985" y="-80"/>
      <point x="985" y="-80" type="qcurve"/>
      <point x="759" y="-80" type="line"/>
      <point x="770" y="-428" type="line"/>
      <point x="1159" y="-428" type="line" smooth="yes"/>
      <point x="1217" y="-428"/>
      <point x="1321" y="-381"/>
      <point x="1403" y="-295"/>
      <point x="1462" y="-175"/>
      <point x="1475" y="-102" type="qcurve" smooth="yes"/>
      <point x="1683" y="1086" type="line"/>
      <point x="1189" y="1086" type="line"/>
      <point x="1119" y="685" type="line"/>
      <point x="639" y="1086" type="line"/>
    </contour>
  </outline>
  <guideline angle="90" color="1,0,0,1" x="870" y="0"/>
</glyph>
<glyph name="k.sc" format="2">
  <advance width="1740.63" height="1448"/>
  <anchor x="941" y="1210" name="top"/>
  <anchor x="731" y="-150" name="bottom"/>
  <outline>
    <contour>
      <point x="248.633" y="1086" type="line"/>
      <point x="58.6333" y="0" type="line"/>
      <point x="589.633" y="0" type="line"/>
      <point x="664.633" y="427" type="line"/>
      <point x="916.633" y="0" type="line"/>
      <point x="1620.63" y="0" type="line"/>
      <point x="1228.63" y="594" type="line"/>
      <point x="1723.63" y="1086" type="line"/>
      <point x="1139.63" y="1086" type="line"/>
      <point x="700.633" y="635" type="line"/>
      <point x="779.633" y="1086" type="line"/>
    </contour>
  </outline>
</glyph>
<glyph name="six.dnom" format="2">
  <advance width="1088"/>
  <outline>
    <contour>
      <point x="423" y="-8" type="line"/>
      <point x="511" y="-8"/>
      <point x="644" y="-4"/>
      <point x="744" y="11"/>
      <point x="814" y="41"/>
      <point x="861" y="92"/>
      <point x="890" y="167"/>
      <point x="899" y="221" type="qcurve" smooth="yes"/>
      <point x="915" y="314"/>
      <point x="879" y="428"/>
      <point x="779" y="490"/>
      <point x="617" y="511"/>
      <point x="507" y="511" type="qcurve" smooth="yes"/>
      <point x="460" y="511"/>
      <point x="358" y="499"/>
      <point x="262" y="480"/>
      <point x="179" y="456"/>
      <point x="150" y="445" type="qcurve"/>
      <point x="121" y="282" type="line"/>
      <point x="154" y="290"/>
      <point x="243" y="302"/>
      <point x="337" y="312"/>
      <point x="429" y="317"/>
      <point x="465" y="317" type="qcurve" smooth="yes"/>
      <point x="497" y="317"/>
      <point x="546" y="315"/>
      <point x="580" y="311"/>
      <point x="601" y="302"/>
      <point x="613" y="289"/>
      <point x="615" y="269"/>
      <point x="612" y="256" type="qcurve"/>
      <point x="610" y="245"/>
      <point x="603" y="226"/>
      <point x="589" y="211"/>
      <point x="569" y="200"/>
      <point x="537" y="193"/>
      <point x="493" y="190"/>
      <point x="463" y="190" type="qcurve" smooth="yes"/>
      <point x="434" y="190"/>
      <point x="389" y="192"/>
      <point x="356" y="198"/>
      <point x="336" y="210"/>
      <point x="326" y="231"/>
      <point x="326" y="262"/>
      <point x="330" y="284" type="qcurve" smooth="yes"/>
      <point x="342" y="351"/>
      <point x="373" y="452"/>
      <point x="418" y="525"/>
      <point x="479" y="574"/>
      <point x="562" y="602"/>
      <point x="670" y="614"/>
      <point x="739" y="614" type="qcurve" smooth="yes"/>
      <point x="748" y="614"/>
      <point x="769" y="613"/>
      <point x="790" y="612"/>
      <point x="808" y="610"/>
      <point x="813" y="609" type="qcurve"/>
      <point x="737" y="790" type="line"/>
      <point x="733" y="791"/>
      <point x="719" y="792"/>
      <point x="699" y="793"/>
      <point x="675" y="794"/>
      <point x="661" y="794" type="qcurve" smooth="yes"/>
      <point x="527" y="794"/>
      <point x="315" y="735"/>
      <point x="161" y="614"/>
      <point x="62" y="431"/>
      <point x="41" y="308" type="qcurve" smooth="yes"/>
      <point x="30" y="242"/>
      <point x="29" y="143"/>
      <point x="57" y="73"/>
      <point x="114" y="28"/>
      <point x="207" y="2"/>
      <point x="337" y="-8"/>
      <point x="423" y="-8" type="qcurve"/>
    </contour>
  </outline>
</glyph>
<glyph name="thorn.sc" format="2">
  <advance width="1519"/>
  <outline>
    <contour>
      <point x="59" y="0" type="line"/>
      <point x="590" y="0" type="line"/>
      <point x="613" y="134" type="line"/>
      <point x="1067" y="134" type="line" smooth="yes"/>
      <point x="1147" y="134"/>
      <point x="1279" y="155"/>
      <point x="1380" y="212"/>
      <point x="1446" y="311"/>
      <point x="1460" y="389" type="qcurve" smooth="yes"/>
      <point x="1516" y="710" type="line" smooth="yes"/>
      <point x="1530" y="789"/>
      <point x="1499" y="890"/>
      <point x="1418" y="949"/>
      <point x="1294" y="972"/>
      <point x="1214" y="972" type="qcurve" smooth="yes"/>
      <point x="760" y="972" type="line"/>
      <point x="780" y="1086" type="line"/>
      <point x="249" y="1086" type="line"/>
    </contour>
    <contour>
      <point x="677" y="500" type="line"/>
      <point x="696" y="606" type="line"/>
      <point x="922" y="606" type="line" smooth="yes"/>
      <point x="932" y="606"/>
      <point x="947" y="601"/>
      <point x="957" y="591"/>
      <point x="961" y="576"/>
      <point x="960" y="566" type="qcurve"/>
      <point x="955" y="540" type="line" smooth="yes"/>
      <point x="953" y="530"/>
      <point x="944" y="515"/>
      <point x="930" y="505"/>
      <point x="913" y="500"/>
      <point x="903" y="500" type="qcurve" smooth="yes"/>
    </contour>
  </outline>
  <guideline angle="90" color="0.4,0.4,0.4,1" name="halfwidth" x="759" y="0"/>
</glyph>
<glyph name="three.dnom" format="2">
  <advance width="1121" height="1448"/>
  <outline>
    <contour>
      <point x="61" y="224" type="line"/>
      <point x="317" y="269" type="line"/>
      <point x="306" y="204" type="line"/>
      <point x="306" y="204"/>
      <point x="306" y="204"/>
      <point x="306" y="204"/>
      <point x="306" y="204"/>
      <point x="306" y="204" type="qcurve"/>
      <point x="595" y="204" type="line" smooth="yes"/>
      <point x="605" y="204"/>
      <point x="624" y="209"/>
      <point x="639" y="218"/>
      <point x="650" y="232"/>
      <point x="651" y="241" type="qcurve"/>
      <point x="656" y="272" type="line"/>
      <point x="658" y="281"/>
      <point x="653" y="295"/>
      <point x="641" y="304"/>
      <point x="623" y="308"/>
      <point x="613" y="308" type="qcurve" smooth="yes"/>
      <point x="428" y="308" type="line"/>
      <point x="459" y="485" type="line"/>
      <point x="628" y="485" type="line" smooth="yes"/>
      <point x="638" y="485"/>
      <point x="657" y="489"/>
      <point x="672" y="498"/>
      <point x="683" y="511"/>
      <point x="684" y="520" type="qcurve"/>
      <point x="688" y="544" type="line"/>
      <point x="690" y="553"/>
      <point x="683" y="567"/>
      <point x="671" y="576"/>
      <point x="653" y="580"/>
      <point x="643" y="580" type="qcurve" smooth="yes"/>
      <point x="378" y="580" type="line"/>
      <point x="378" y="580"/>
      <point x="378" y="580"/>
      <point x="378" y="580"/>
      <point x="378" y="580"/>
      <point x="378" y="580" type="qcurve"/>
      <point x="365" y="505" type="line"/>
      <point x="125" y="550" type="line"/>
      <point x="138" y="624" type="line" smooth="yes"/>
      <point x="148" y="682"/>
      <point x="191" y="749"/>
      <point x="254" y="783"/>
      <point x="335" y="792"/>
      <point x="383" y="792" type="qcurve" smooth="yes"/>
      <point x="760" y="792" type="line" smooth="yes"/>
      <point x="820" y="792"/>
      <point x="898" y="767"/>
      <point x="943" y="721"/>
      <point x="955" y="656"/>
      <point x="948" y="615" type="qcurve" smooth="yes"/>
      <point x="940" y="566" type="line" smooth="yes"/>
      <point x="934" y="532"/>
      <point x="917" y="479"/>
      <point x="885" y="438"/>
      <point x="832" y="411"/>
      <point x="789" y="403" type="qcurve"/>
      <point x="821" y="400"/>
      <point x="869" y="379"/>
      <point x="897" y="339"/>
      <point x="905" y="276"/>
      <point x="897" y="231" type="qcurve" smooth="yes"/>
      <point x="888" y="175" type="line" smooth="yes"/>
      <point x="877" y="113"/>
      <point x="831" y="41"/>
      <point x="765" y="3"/>
      <point x="679" y="-8"/>
      <point x="628" y="-8" type="qcurve" smooth="yes"/>
      <point x="237" y="-8" type="line" smooth="yes"/>
      <point x="191" y="-8"/>
      <point x="115" y="8"/>
      <point x="64" y="48"/>
      <point x="42" y="115"/>
      <point x="51" y="167" type="qcurve" smooth="yes"/>
    </contour>
  </outline>
</glyph>
<glyph name="u.sc" format="2">
  <advance width="1675"/>
  <anchor x="934" y="1236" name="top"/>
  <anchor x="692" y="-150" name="bottom"/>
  <anchor x="1577" y="1086" name="horn"/>
  <anchor x="904" y="0" name="ogonek"/>
  <outline>
    <contour>
      <point x="238" y="1086" type="line"/>
      <point x="769" y="1086" type="line"/>
      <point x="654" y="427" type="line"/>
      <point x="654" y="427"/>
      <point x="654" y="427"/>
      <point x="654" y="427" type="qcurve"/>
      <point x="931" y="427" type="line"/>
      <point x="931" y="427"/>
      <point x="931" y="427"/>
      <point x="931" y="427" type="qcurve"/>
      <point x="1046" y="1086" type="line"/>
      <point x="1577" y="1086" type="line"/>
      <point x="1434" y="271" type="line" smooth="yes"/>
      <point x="1419" y="184"/>
      <point x="1353" y="74"/>
      <point x="1252" y="13"/>
      <point x="1120" y="-10"/>
      <point x="1039" y="-10" type="qcurve" smooth="yes"/>
      <point x="390" y="-10" type="line" smooth="yes"/>
      <point x="310" y="-10"/>
      <point x="187" y="13"/>
      <point x="109" y="74"/>
      <point x="80" y="184"/>
      <point x="95" y="271" type="qcurve" smooth="yes"/>
    </contour>
  </outline>
</glyph>
<glyph name="uni030A.case" format="2">
  <anchor x="70" y="1174" name="_top"/>
  <anchor x="156" y="1661" name="top"/>
  <outline>
    <contour>
      <point x="-203" y="1319" type="line"/>
      <point x="-216" y="1246"/>
      <point x="-210" y="1155"/>
      <point x="-155" y="1105"/>
      <point x="-40" y="1087"/>
      <point x="55" y="1087" type="qcurve" smooth="yes"/>
      <point x="150" y="1087"/>
      <point x="270" y="1105"/>
      <point x="344" y="1155"/>
      <point x="382" y="1246"/>
      <point x="395" y="1319" type="qcurve" smooth="yes"/>
      <point x="408" y="1392"/>
      <point x="402" y="1483"/>
      <point x="346" y="1533"/>
      <point x="232" y="1551"/>
      <point x="137" y="1551" type="qcurve" smooth="yes"/>
      <point x="42" y="1551"/>
      <point x="-79" y="1533"/>
      <point x="-152" y="1483"/>
      <point x="-190" y="1392"/>
      <point x="-203" y="1319" type="qcurve"/>
    </contour>
    <contour>
      <point x="36" y="1319" type="line"/>
      <point x="39" y="1339"/>
      <point x="50" y="1363"/>
      <point x="67" y="1376"/>
      <point x="91" y="1380"/>
      <point x="107" y="1380" type="qcurve" smooth="yes"/>
      <point x="124" y="1380"/>
      <point x="145" y="1376"/>
      <point x="157" y="1363"/>
      <point x="159" y="1339"/>
      <point x="156" y="1319" type="qcurve"/>
      <point x="152" y="1299"/>
      <point x="142" y="1275"/>
      <point x="125" y="1262"/>
      <point x="102" y="1258"/>
      <point x="85" y="1258" type="qcurve" smooth="yes"/>
      <point x="69" y="1258"/>
      <point x="46" y="1262"/>
      <point x="34" y="1275"/>
      <point x="32" y="1299"/>
      <point x="36" y="1319" type="qcurve"/>
    </contour>
  </outline>
</glyph>
<glyph name="uni0326.case" format="2">
  <anchor x="-15" y="-150" name="_bottom"/>
  <outline>
    <contour>
      <point x="-268" y="-678" type="line"/>
      <point x="-124" y="-475" type="line"/>
      <point x="-172" y="-475" type="line" smooth="yes"/>
      <point x="-203" y="-475"/>
      <point x="-240" y="-468"/>
      <point x="-257" y="-448"/>
      <point x="-257" y="-411"/>
      <point x="-252" y="-381" type="qcurve" smooth="yes"/>
      <point x="-224" y="-219" type="line" smooth="yes"/>
      <point x="-219" y="-189"/>
      <point x="-205" y="-153"/>
      <point x="-181" y="-133"/>
      <point x="-141" y="-126"/>
      <point x="-110" y="-126" type="qcurve" smooth="yes"/>
      <point x="88" y="-126" type="line" smooth="yes"/>
      <point x="119" y="-126"/>
      <point x="156" y="-133"/>
      <point x="173" y="-153"/>
      <point x="173" y="-189"/>
      <point x="168" y="-219" type="qcurve" smooth="yes"/>
      <point x="140" y="-381" type="line" smooth="yes"/>
      <point x="135" y="-410"/>
      <point x="122" y="-446"/>
      <point x="111" y="-457" type="qcurve" smooth="yes"/>
      <point x="-128" y="-708" type="line"/>
    </contour>
  </outline>
</glyph>
<glyph name="uni0436.sc" format="2">
  <advance width="2619"/>
  <anchor x="968" y="-150" name="bottom"/>
  <anchor x="1406" y="1236" name="top"/>
  <outline>
    <contour>
      <point x="-120" y="0" type="line"/>
      <point x="580" y="0" type="line"/>
      <point x="995" y="409" type="line"/>
      <point x="924" y="0" type="line"/>
      <point x="1455" y="0" type="line"/>
      <point x="1526" y="409" type="line"/>
      <point x="1799" y="0" type="line"/>
      <point x="2499" y="0" type="line"/>
      <point x="2048" y="581" type="line"/>
      <point x="2641" y="1086" type="line"/>
      <point x="2047" y="1086" type="line"/>
      <point x="1571" y="666" type="line"/>
      <point x="1645" y="1086" type="line"/>
      <point x="1114" y="1086" type="line"/>
      <point x="1040" y="666" type="line"/>
      <point x="712" y="1086" type="line"/>
      <point x="118" y="1086" type="line"/>
      <point x="533" y="581" type="line"/>
    </contour>
  </outline>
</glyph>
<glyph name="uni0452.sc" format="2">
  <advance width="1735"/>
  <outline>
    <contour>
      <point x="293" y="0" type="line"/>
      <point x="824" y="0" type="line"/>
      <point x="890" y="376" type="line"/>
      <point x="1096" y="376" type="line" smooth="yes"/>
      <point x="1107" y="376"/>
      <point x="1124" y="373"/>
      <point x="1134" y="367"/>
      <point x="1138" y="355"/>
      <point x="1136" y="346" type="qcurve"/>
      <point x="1134" y="335" type="line"/>
      <point x="1133" y="326"/>
      <point x="1125" y="314"/>
      <point x="1111" y="308"/>
      <point x="1094" y="305"/>
      <point x="1083" y="305" type="qcurve" smooth="yes"/>
      <point x="975" y="305" type="line"/>
      <point x="922" y="-1" type="line"/>
      <point x="1259" y="-1" type="line" smooth="yes"/>
      <point x="1339" y="-1"/>
      <point x="1472" y="23"/>
      <point x="1573" y="83"/>
      <point x="1640" y="187"/>
      <point x="1654" y="267" type="qcurve" smooth="yes"/>
      <point x="1681" y="425" type="line" smooth="yes"/>
      <point x="1696" y="508"/>
      <point x="1664" y="611"/>
      <point x="1582" y="668"/>
      <point x="1457" y="688"/>
      <point x="1379" y="688" type="qcurve" smooth="yes"/>
      <point x="944" y="688" type="line"/>
      <point x="959" y="774" type="line"/>
      <point x="1321" y="774" type="line"/>
      <point x="1376" y="1086" type="line"/>
      <point x="121" y="1086" type="line"/>
      <point x="66" y="774" type="line"/>
      <point x="428" y="774" type="line"/>
    </contour>
  </outline>
  <guideline angle="260.09" color="1,0,0,1" x="407" y="646"/>
</glyph>
<glyph name="uni0473.sc" format="2">
  <advance width="1775"/>
  <outline>
    <contour>
      <point x="380" y="-11" type="line"/>
      <point x="1147" y="-11" type="line" smooth="yes"/>
      <point x="1231" y="-11"/>
      <point x="1364" y="11"/>
      <point x="1463" y="70"/>
      <point x="1527" y="170"/>
      <point x="1540" y="248" type="qcurve" smooth="yes"/>
      <point x="1645" y="847" type="line" smooth="yes"/>
      <point x="1658" y="923"/>
      <point x="1626" y="1020"/>
      <point x="1545" y="1076"/>
      <point x="1420" y="1097"/>
      <point x="1340" y="1097" type="qcurve" smooth="yes"/>
      <point x="573" y="1097" type="line" smooth="yes"/>
      <point x="493" y="1097"/>
      <point x="361" y="1076"/>
      <point x="262" y="1020"/>
      <point x="197" y="923"/>
      <point x="184" y="847" type="qcurve" smooth="yes"/>
      <point x="79" y="248" type="line" smooth="yes"/>
      <point x="66" y="171"/>
      <point x="93" y="71"/>
      <point x="171" y="12"/>
      <point x="296" y="-11"/>
      <point x="380" y="-11" type="qcurve"/>
    </contour>
    <contour>
      <point x="682" y="661" type="line"/>
      <point x="704" y="785" type="line"/>
      <point x="704" y="785"/>
      <point x="704" y="785"/>
      <point x="704" y="785" type="qcurve"/>
      <point x="1103" y="785" type="line"/>
      <point x="1103" y="785"/>
      <point x="1103" y="785"/>
      <point x="1103" y="785" type="qcurve"/>
      <point x="1081" y="661" type="line"/>
    </contour>
    <contour>
      <point x="642" y="432" type="line"/>
      <point x="1041" y="432" type="line"/>
      <point x="1019" y="301" type="line"/>
      <point x="1019" y="301"/>
      <point x="1019" y="301"/>
      <point x="1019" y="301" type="qcurve"/>
      <point x="620" y="301" type="line"/>
      <point x="620" y="301"/>
      <point x="620" y="301"/>
      <point x="620" y="301" type="qcurve"/>
    </contour>
  </outline>
</glyph>
<glyph name="uni04B9.sc" format="2">
  <advance width="1703"/>
  <outline>
    <contour>
      <point x="872" y="0" type="line"/>
      <point x="1403" y="0" type="line"/>
      <point x="1593" y="1086" type="line"/>
      <point x="1062" y="1086" type="line"/>
      <point x="983" y="635" type="line"/>
      <point x="930" y="635" type="line"/>
      <point x="971" y="869" type="line"/>
      <point x="775" y="869" type="line"/>
      <point x="734" y="635" type="line"/>
      <point x="681" y="635" type="line"/>
      <point x="681" y="635"/>
      <point x="681" y="635"/>
      <point x="681" y="635"/>
      <point x="681" y="635"/>
      <point x="681" y="635" type="qcurve"/>
      <point x="760" y="1086" type="line"/>
      <point x="229" y="1086" type="line"/>
      <point x="141" y="582" type="line" smooth="yes"/>
      <point x="127" y="503"/>
      <point x="156" y="402"/>
      <point x="235" y="345"/>
      <point x="358" y="324"/>
      <point x="438" y="324" type="qcurve" smooth="yes"/>
      <point x="680" y="324" type="line"/>
      <point x="661" y="217" type="line"/>
      <point x="857" y="217" type="line"/>
      <point x="876" y="324" type="line"/>
      <point x="929" y="324" type="line"/>
    </contour>
  </outline>
</glyph>
